<svg xmlns="http://www.w3.org/2000/svg" version="1.1" style="font-family:Lato, &#x27;Helvetica Neue&#x27;, Helvetica, Arial, &#x27;Liberation Sans&#x27;, sans-serif;font-size:18px;background-color:white;text-rendering:geometricPrecision;-webkit-font-smoothing:antialiased" width="850" height="600" viewBox="0 0 850 600"><defs><pattern id="noDataPattern" patternUnits="userSpaceOnUse" width="4" height="4" patternTransform="rotate(-45 2 2)"><path d="M -1,2 l 6,0" stroke="#ccc" stroke-width="0.7"></path></pattern></defs><rect class="background-fill" fill="white" width="850" height="600"></rect><g class="HeaderView"><g transform="translate(774, 15) scale(0.29)"><svg className="owidLog" width="210" height="120" viewBox="0 0 210 120" fill="none" xmlns="http://www.w3.org/2000/svg">
<g clip-path="url(#clip0)">
  <path d="M0 0h210v107.89H0V0z" fill="#002147" />
  <path
    d="M40.98 32.25c0 2.36-.38 4.53-1.12 6.51a14.26 14.26 0 0 1-8.1 8.4c-1.9.78-4.02 1.17-6.34 1.17-2.31 0-4.42-.39-6.33-1.17a14.31 14.31 0 0 1-8.08-8.4 18.29 18.29 0 0 1-1.12-6.51c0-2.36.38-4.53 1.12-6.5.75-1.97 1.8-3.67 3.17-5.1a14.32 14.32 0 0 1 4.9-3.34c1.92-.8 4.03-1.19 6.34-1.19 2.32 0 4.43.4 6.34 1.19 1.92.8 3.56 1.9 4.93 3.34a14.87 14.87 0 0 1 3.17 5.1 18.1 18.1 0 0 1 1.12 6.5zm-4.38 0c0-1.94-.26-3.68-.8-5.22a10.91 10.91 0 0 0-2.24-3.89 9.68 9.68 0 0 0-3.52-2.46 11.95 11.95 0 0 0-4.62-.86c-1.68 0-3.21.28-4.6.86a9.88 9.88 0 0 0-3.54 2.46 10.91 10.91 0 0 0-2.24 3.9c-.53 1.53-.8 3.27-.8 5.2 0 1.94.27 3.68.8 5.22a11.17 11.17 0 0 0 2.24 3.9 10.01 10.01 0 0 0 3.55 2.44c1.38.56 2.9.83 4.6.83s3.24-.27 4.61-.83a9.8 9.8 0 0 0 3.52-2.44 11.17 11.17 0 0 0 2.25-3.9c.53-1.54.8-3.28.8-5.21zm26.22-6.54V48H60.5c-.56 0-.9-.27-1.05-.81l-.31-2.4a12.45 12.45 0 0 1-3.26 2.6c-1.2.64-2.58.96-4.13.96-1.22 0-2.3-.2-3.24-.6a6.52 6.52 0 0 1-2.33-1.7 7.37 7.37 0 0 1-1.43-2.67c-.3-1.04-.46-2.2-.46-3.45V25.7h3.91v14.22c0 1.68.38 2.99 1.15 3.91.77.93 1.96 1.39 3.54 1.39 1.16 0 2.24-.27 3.23-.82a10.42 10.42 0 0 0 2.8-2.28V25.7h3.91zm8.61 4.47a9.94 9.94 0 0 1 2.6-3.56 5.64 5.64 0 0 1 3.76-1.3c.47 0 .92.05 1.34.15.44.1.83.27 1.17.49l-.3 2.92c-.09.37-.3.55-.66.55-.2 0-.5-.04-.9-.13a6.21 6.21 0 0 0-3.24.18 4.23 4.23 0 0 0-1.47.92c-.42.4-.81.9-1.17 1.5-.33.58-.64 1.26-.92 2.02V48H67.7V25.71h2.25c.42 0 .72.08.88.25.16.16.27.44.33.83l.26 3.39zm61.16-13.7L122.75 48h-3.82l-7.99-24.05a21.95 21.95 0 0 1-.42-1.58 38.36 38.36 0 0 1-.44 1.58L102.05 48h-3.83L88.4 16.47h3.54c.38 0 .7.1.95.29.26.2.43.43.5.73l6.52 21.9.28 1.28.29 1.46.3-1.46.38-1.27 7.41-21.91c.1-.25.26-.48.51-.69.27-.22.58-.33.95-.33h1.23c.38 0 .69.1.92.29a1.77 1.77 0 0 1 .53.73l7.4 21.9a28.4 28.4 0 0 1 .68 2.62 29.52 29.52 0 0 1 .52-2.61l6.54-21.91a1.31 1.31 0 0 1 .48-.7c.27-.21.58-.32.95-.32h3.32zm9.35 8.88c1.63 0 3.1.27 4.4.82a9.43 9.43 0 0 1 5.46 5.94c.5 1.4.74 2.98.74 4.73 0 1.76-.25 3.34-.74 4.75a9.43 9.43 0 0 1-5.46 5.92c-1.3.52-2.77.79-4.4.79-1.64 0-3.12-.27-4.44-.8a9.42 9.42 0 0 1-3.35-2.3c-.92-1-1.63-2.2-2.13-3.61-.49-1.41-.73-3-.73-4.75s.24-3.33.73-4.73c.5-1.43 1.2-2.64 2.13-3.63.93-1 2.04-1.77 3.35-2.31 1.32-.55 2.8-.82 4.44-.82zm0 19.89c2.2 0 3.84-.73 4.93-2.2 1.08-1.48 1.63-3.54 1.63-6.18 0-2.66-.55-4.72-1.63-6.2-1.09-1.49-2.73-2.23-4.93-2.23-1.12 0-2.09.2-2.93.57a5.71 5.71 0 0 0-2.06 1.65c-.55.72-.96 1.61-1.24 2.67-.26 1.04-.4 2.22-.4 3.54 0 2.64.55 4.7 1.64 6.18 1.1 1.47 2.76 2.2 4.99 2.2zm17.97-15.07a9.94 9.94 0 0 1 2.6-3.56 5.64 5.64 0 0 1 3.76-1.3c.47 0 .91.05 1.34.15.44.1.83.27 1.16.49l-.28 2.92c-.09.37-.31.55-.66.55-.2 0-.5-.04-.9-.13a6.2 6.2 0 0 0-3.24.18 4.23 4.23 0 0 0-1.47.92c-.43.4-.82.9-1.17 1.5a13.1 13.1 0 0 0-.92 2.02V48h-3.94V25.71h2.24c.43 0 .72.08.88.25.17.16.28.44.33.83l.27 3.39zm15.04-14.59V48h-3.92V15.6h3.92zm19.55 15.43a6.22 6.22 0 0 0-2.38-2.05 6.7 6.7 0 0 0-2.86-.6c-2.07 0-3.66.75-4.77 2.23-1.12 1.48-1.68 3.6-1.68 6.33 0 1.46.13 2.7.38 3.74a7.29 7.29 0 0 0 1.1 2.56 4.35 4.35 0 0 0 1.78 1.45c.7.3 1.5.46 2.4.46 1.29 0 2.41-.3 3.36-.88a9.6 9.6 0 0 0 2.67-2.49V31.02zm3.91-15.43V48h-2.33c-.56 0-.9-.27-1.06-.81l-.35-2.71a12.13 12.13 0 0 1-3.25 2.77 8.28 8.28 0 0 1-4.23 1.06 7.31 7.31 0 0 1-6.14-2.9c-.73-.96-1.3-2.15-1.69-3.57a18.35 18.35 0 0 1 .07-9.48 11.29 11.29 0 0 1 1.89-3.7 8.7 8.7 0 0 1 7.06-3.34 7.96 7.96 0 0 1 6.12 2.62V15.59h3.91zM46.61 70.71V93H42.7V70.71h3.91zm.84-7c0 .39-.08.75-.24 1.09-.15.32-.35.61-.62.88-.25.25-.55.44-.9.59a2.67 2.67 0 0 1-2.16 0 2.9 2.9 0 0 1-1.45-1.47 2.67 2.67 0 0 1 0-2.16c.15-.35.35-.65.6-.9.25-.27.53-.47.85-.62a2.67 2.67 0 0 1 2.16 0c.35.15.65.35.9.62.27.25.47.55.62.9.16.34.24.7.24 1.08zm7.97 10.24c.49-.54 1-1.04 1.54-1.48a9.85 9.85 0 0 1 3.66-1.84 8.96 8.96 0 0 1 5.43.35c.94.4 1.72.97 2.33 1.71.63.74 1.11 1.62 1.43 2.67.32 1.04.49 2.19.49 3.45V93h-3.94V78.81c0-1.69-.4-3-1.17-3.92-.76-.93-1.93-1.4-3.5-1.4-1.15 0-2.24.27-3.25.83-1 .56-1.92 1.31-2.77 2.27V93h-3.94V70.71h2.35c.56 0 .9.28 1.04.82l.3 2.42zm57.7 3.3c0 2.36-.37 4.5-1.11 6.44a14.3 14.3 0 0 1-3.17 4.98c-1.37 1.37-3 2.45-4.93 3.2-1.9.76-4.02 1.13-6.33 1.13H85.8V61.47h11.77c2.31 0 4.42.39 6.33 1.15a13.8 13.8 0 0 1 8.1 8.18 17.75 17.75 0 0 1 1.12 6.45zm-4.37 0c0-1.94-.26-3.67-.8-5.2a10.94 10.94 0 0 0-2.23-3.87 9.57 9.57 0 0 0-3.53-2.42 12.23 12.23 0 0 0-4.61-.83h-7.5v24.62h7.5c1.7 0 3.24-.28 4.61-.84a9.7 9.7 0 0 0 3.53-2.4 10.94 10.94 0 0 0 2.24-3.87c.53-1.53.8-3.26.8-5.2zm19.8 5.72c-1.8.06-3.34.2-4.62.44-1.26.22-2.3.51-3.1.88-.8.36-1.37.8-1.74 1.3-.35.5-.53 1.05-.53 1.67 0 .58.1 1.1.3 1.52a3 3 0 0 0 .76 1.05c.34.27.73.46 1.17.6a6.13 6.13 0 0 0 1.45.17 7.28 7.28 0 0 0 3.5-.81 11.95 11.95 0 0 0 2.82-2.2v-4.62zm-12.65-9.11a12.73 12.73 0 0 1 3.98-2.66c1.43-.59 3-.88 4.73-.88 1.25 0 2.36.2 3.33.61a6.81 6.81 0 0 1 3.94 4.38c.33 1.04.5 2.19.5 3.43V93h-1.74a1.8 1.8 0 0 1-.88-.18c-.2-.13-.36-.38-.48-.74l-.44-2.12-1.72 1.46a9.48 9.48 0 0 1-3.74 1.7c-.69.15-1.46.23-2.3.23-.87 0-1.69-.12-2.45-.35a5.34 5.34 0 0 1-3.34-2.93 6.64 6.64 0 0 1-.49-2.64c0-.88.25-1.72.73-2.53a6.33 6.33 0 0 1 2.35-2.17c1.09-.63 2.5-1.15 4.25-1.54 1.75-.41 3.89-.65 6.42-.7v-1.75c0-1.73-.37-3.03-1.12-3.91-.75-.9-1.84-1.34-3.28-1.34-.97 0-1.78.12-2.44.37-.64.23-1.2.5-1.7.81l-1.23.82c-.33.23-.67.35-1 .35-.27 0-.5-.07-.69-.2a2.1 2.1 0 0 1-.48-.53l-.7-1.25zm27.67 19.5c-1.76 0-3.12-.5-4.07-1.48-.94-.98-1.41-2.4-1.41-4.25V74h-2.68a.9.9 0 0 1-.6-.2c-.16-.14-.24-.36-.24-.66v-1.56l3.65-.46.9-6.89c.05-.22.14-.4.29-.52a.88.88 0 0 1 .62-.22H142v7.67h6.44V74H142v13.38c0 .94.22 1.63.68 2.09.45.45 1.04.68 1.76.68a3.21 3.21 0 0 0 1.85-.53l.55-.35c.16-.12.3-.18.41-.18.2 0 .4.13.55.38l1.15 1.87a7.45 7.45 0 0 1-2.44 1.5 8.53 8.53 0 0 1-2.95.52zm19.68-10.4c-1.8.07-3.34.21-4.62.45-1.26.22-2.3.51-3.1.88-.8.36-1.37.8-1.74 1.3-.35.5-.53 1.05-.53 1.67 0 .58.1 1.1.3 1.52a2.9 2.9 0 0 0 .76 1.05c.34.27.73.46 1.17.6a6.13 6.13 0 0 0 1.45.17 7.3 7.3 0 0 0 3.5-.81 12.04 12.04 0 0 0 2.82-2.2v-4.62zm-12.65-9.1a12.72 12.72 0 0 1 3.99-2.66c1.42-.59 3-.88 4.72-.88 1.25 0 2.36.2 3.33.61a6.81 6.81 0 0 1 3.94 4.38c.33 1.04.5 2.19.5 3.43V93h-1.74a1.8 1.8 0 0 1-.88-.18c-.2-.13-.36-.38-.48-.74l-.44-2.12-1.72 1.46a9.48 9.48 0 0 1-3.74 1.7c-.69.15-1.46.23-2.3.23-.87 0-1.69-.12-2.45-.35a5.33 5.33 0 0 1-3.34-2.93 6.62 6.62 0 0 1-.49-2.64c0-.88.25-1.72.73-2.53a6.33 6.33 0 0 1 2.35-2.17c1.09-.63 2.5-1.15 4.25-1.54 1.74-.41 3.89-.65 6.42-.7v-1.75c0-1.73-.37-3.03-1.12-3.91-.75-.9-1.84-1.34-3.28-1.34-.97 0-1.78.12-2.44.37-.64.23-1.2.5-1.7.81l-1.22.82c-.34.23-.68.35-1.02.35-.26 0-.49-.07-.68-.2a1.88 1.88 0 0 1-.48-.53l-.7-1.25zM40.98 32.25c0 2.36-.38 4.53-1.12 6.51a14.26 14.26 0 0 1-8.1 8.4c-1.9.78-4.02 1.17-6.34 1.17-2.31 0-4.42-.39-6.33-1.17a14.31 14.31 0 0 1-8.08-8.4 18.29 18.29 0 0 1-1.12-6.51c0-2.36.38-4.53 1.12-6.5.75-1.97 1.8-3.67 3.17-5.1a14.32 14.32 0 0 1 4.9-3.34c1.92-.8 4.03-1.19 6.34-1.19 2.32 0 4.43.4 6.34 1.19 1.92.8 3.56 1.9 4.93 3.34a14.87 14.87 0 0 1 3.17 5.1 18.1 18.1 0 0 1 1.12 6.5zm-4.38 0c0-1.94-.26-3.68-.8-5.22a10.91 10.91 0 0 0-2.24-3.89 9.68 9.68 0 0 0-3.52-2.46 11.95 11.95 0 0 0-4.62-.86c-1.68 0-3.21.28-4.6.86a9.88 9.88 0 0 0-3.54 2.46 10.91 10.91 0 0 0-2.24 3.9c-.53 1.53-.8 3.27-.8 5.2 0 1.94.27 3.68.8 5.22a11.17 11.17 0 0 0 2.24 3.9 10.01 10.01 0 0 0 3.55 2.44c1.38.56 2.9.83 4.6.83s3.24-.27 4.61-.83a9.8 9.8 0 0 0 3.52-2.44 11.17 11.17 0 0 0 2.25-3.9c.53-1.54.8-3.28.8-5.21zm26.22-6.54V48H60.5c-.56 0-.9-.27-1.05-.81l-.31-2.4a12.45 12.45 0 0 1-3.26 2.6c-1.2.64-2.58.96-4.13.96-1.22 0-2.3-.2-3.24-.6a6.52 6.52 0 0 1-2.33-1.7 7.37 7.37 0 0 1-1.43-2.67c-.3-1.04-.46-2.2-.46-3.45V25.7h3.91v14.22c0 1.68.38 2.99 1.15 3.91.77.93 1.96 1.39 3.54 1.39 1.16 0 2.24-.27 3.23-.82a10.42 10.42 0 0 0 2.8-2.28V25.7h3.91zm8.61 4.47a9.94 9.94 0 0 1 2.6-3.56 5.64 5.64 0 0 1 3.76-1.3c.47 0 .92.05 1.34.15.44.1.83.27 1.17.49l-.3 2.92c-.09.37-.3.55-.66.55-.2 0-.5-.04-.9-.13a6.21 6.21 0 0 0-3.24.18 4.23 4.23 0 0 0-1.47.92c-.42.4-.81.9-1.17 1.5-.33.58-.64 1.26-.92 2.02V48H67.7V25.71h2.25c.42 0 .72.08.88.25.16.16.27.44.33.83l.26 3.39zm61.16-13.7L122.75 48h-3.82l-7.99-24.05a21.95 21.95 0 0 1-.42-1.58 38.36 38.36 0 0 1-.44 1.58L102.05 48h-3.83L88.4 16.47h3.54c.38 0 .7.1.95.29.26.2.43.43.5.73l6.52 21.9.28 1.28.29 1.46.3-1.46.38-1.27 7.41-21.91c.1-.25.26-.48.51-.69.27-.22.58-.33.95-.33h1.23c.38 0 .69.1.92.29a1.77 1.77 0 0 1 .53.73l7.4 21.9a28.4 28.4 0 0 1 .68 2.62 29.52 29.52 0 0 1 .52-2.61l6.54-21.91a1.31 1.31 0 0 1 .48-.7c.27-.21.58-.32.95-.32h3.32zm9.35 8.88c1.63 0 3.1.27 4.4.82a9.43 9.43 0 0 1 5.46 5.94c.5 1.4.74 2.98.74 4.73 0 1.76-.25 3.34-.74 4.75a9.43 9.43 0 0 1-5.46 5.92c-1.3.52-2.77.79-4.4.79-1.64 0-3.12-.27-4.44-.8a9.42 9.42 0 0 1-3.35-2.3c-.92-1-1.63-2.2-2.13-3.61-.49-1.41-.73-3-.73-4.75s.24-3.33.73-4.73c.5-1.43 1.2-2.64 2.13-3.63.93-1 2.04-1.77 3.35-2.31 1.32-.55 2.8-.82 4.44-.82zm0 19.89c2.2 0 3.84-.73 4.93-2.2 1.08-1.48 1.63-3.54 1.63-6.18 0-2.66-.55-4.72-1.63-6.2-1.09-1.49-2.73-2.23-4.93-2.23-1.12 0-2.09.2-2.93.57a5.71 5.71 0 0 0-2.06 1.65c-.55.72-.96 1.61-1.24 2.67-.26 1.04-.4 2.22-.4 3.54 0 2.64.55 4.7 1.64 6.18 1.1 1.47 2.76 2.2 4.99 2.2zm17.97-15.07a9.94 9.94 0 0 1 2.6-3.56 5.64 5.64 0 0 1 3.76-1.3c.47 0 .91.05 1.34.15.44.1.83.27 1.16.49l-.28 2.92c-.09.37-.31.55-.66.55-.2 0-.5-.04-.9-.13a6.2 6.2 0 0 0-3.24.18 4.23 4.23 0 0 0-1.47.92c-.43.4-.82.9-1.17 1.5a13.1 13.1 0 0 0-.92 2.02V48h-3.94V25.71h2.24c.43 0 .72.08.88.25.17.16.28.44.33.83l.27 3.39zm15.04-14.59V48h-3.92V15.6h3.92zm19.55 15.43a6.22 6.22 0 0 0-2.38-2.05 6.7 6.7 0 0 0-2.86-.6c-2.07 0-3.66.75-4.77 2.23-1.12 1.48-1.68 3.6-1.68 6.33 0 1.46.13 2.7.38 3.74a7.29 7.29 0 0 0 1.1 2.56 4.35 4.35 0 0 0 1.78 1.45c.7.3 1.5.46 2.4.46 1.29 0 2.41-.3 3.36-.88a9.6 9.6 0 0 0 2.67-2.49V31.02zm3.91-15.43V48h-2.33c-.56 0-.9-.27-1.06-.81l-.35-2.71a12.13 12.13 0 0 1-3.25 2.77 8.28 8.28 0 0 1-4.23 1.06 7.31 7.31 0 0 1-6.14-2.9c-.73-.96-1.3-2.15-1.69-3.57a18.35 18.35 0 0 1 .07-9.48 11.29 11.29 0 0 1 1.89-3.7 8.7 8.7 0 0 1 7.06-3.34 7.96 7.96 0 0 1 6.12 2.62V15.59h3.91zM46.61 70.71V93H42.7V70.71h3.91zm.84-7c0 .39-.08.75-.24 1.09-.15.32-.35.61-.62.88-.25.25-.55.44-.9.59a2.67 2.67 0 0 1-2.16 0 2.9 2.9 0 0 1-1.45-1.47 2.67 2.67 0 0 1 0-2.16c.15-.35.35-.65.6-.9.25-.27.53-.47.85-.62a2.67 2.67 0 0 1 2.16 0c.35.15.65.35.9.62.27.25.47.55.62.9.16.34.24.7.24 1.08zm7.97 10.24c.49-.54 1-1.04 1.54-1.48a9.85 9.85 0 0 1 3.66-1.84 8.96 8.96 0 0 1 5.43.35c.94.4 1.72.97 2.33 1.71.63.74 1.11 1.62 1.43 2.67.32 1.04.49 2.19.49 3.45V93h-3.94V78.81c0-1.69-.4-3-1.17-3.92-.76-.93-1.93-1.4-3.5-1.4-1.15 0-2.24.27-3.25.83-1 .56-1.92 1.31-2.77 2.27V93h-3.94V70.71h2.35c.56 0 .9.28 1.04.82l.3 2.42zm57.7 3.3c0 2.36-.37 4.5-1.11 6.44a14.3 14.3 0 0 1-3.17 4.98c-1.37 1.37-3 2.45-4.93 3.2-1.9.76-4.02 1.13-6.33 1.13H85.8V61.47h11.77c2.31 0 4.42.39 6.33 1.15a13.8 13.8 0 0 1 8.1 8.18 17.75 17.75 0 0 1 1.12 6.45zm-4.37 0c0-1.94-.26-3.67-.8-5.2a10.94 10.94 0 0 0-2.23-3.87 9.57 9.57 0 0 0-3.53-2.42 12.23 12.23 0 0 0-4.61-.83h-7.5v24.62h7.5c1.7 0 3.24-.28 4.61-.84a9.7 9.7 0 0 0 3.53-2.4 10.94 10.94 0 0 0 2.24-3.87c.53-1.53.8-3.26.8-5.2zm19.8 5.72c-1.8.06-3.34.2-4.62.44-1.26.22-2.3.51-3.1.88-.8.36-1.37.8-1.74 1.3-.35.5-.53 1.05-.53 1.67 0 .58.1 1.1.3 1.52a3 3 0 0 0 .76 1.05c.34.27.73.46 1.17.6a6.13 6.13 0 0 0 1.45.17 7.28 7.28 0 0 0 3.5-.81 11.95 11.95 0 0 0 2.82-2.2v-4.62zm-12.65-9.11a12.73 12.73 0 0 1 3.98-2.66c1.43-.59 3-.88 4.73-.88 1.25 0 2.36.2 3.33.61a6.81 6.81 0 0 1 3.94 4.38c.33 1.04.5 2.19.5 3.43V93h-1.74a1.8 1.8 0 0 1-.88-.18c-.2-.13-.36-.38-.48-.74l-.44-2.12-1.72 1.46a9.48 9.48 0 0 1-3.74 1.7c-.69.15-1.46.23-2.3.23-.87 0-1.69-.12-2.45-.35a5.34 5.34 0 0 1-3.34-2.93 6.64 6.64 0 0 1-.49-2.64c0-.88.25-1.72.73-2.53a6.33 6.33 0 0 1 2.35-2.17c1.09-.63 2.5-1.15 4.25-1.54 1.75-.41 3.89-.65 6.42-.7v-1.75c0-1.73-.37-3.03-1.12-3.91-.75-.9-1.84-1.34-3.28-1.34-.97 0-1.78.12-2.44.37-.64.23-1.2.5-1.7.81l-1.23.82c-.33.23-.67.35-1 .35-.27 0-.5-.07-.69-.2a2.1 2.1 0 0 1-.48-.53l-.7-1.25zm27.67 19.5c-1.76 0-3.12-.5-4.07-1.48-.94-.98-1.41-2.4-1.41-4.25V74h-2.68a.9.9 0 0 1-.6-.2c-.16-.14-.24-.36-.24-.66v-1.56l3.65-.46.9-6.89c.05-.22.14-.4.29-.52a.88.88 0 0 1 .62-.22H142v7.67h6.44V74H142v13.38c0 .94.22 1.63.68 2.09.45.45 1.04.68 1.76.68a3.21 3.21 0 0 0 1.85-.53l.55-.35c.16-.12.3-.18.41-.18.2 0 .4.13.55.38l1.15 1.87a7.45 7.45 0 0 1-2.44 1.5 8.53 8.53 0 0 1-2.95.52zm19.68-10.4c-1.8.07-3.34.21-4.62.45-1.26.22-2.3.51-3.1.88-.8.36-1.37.8-1.74 1.3-.35.5-.53 1.05-.53 1.67 0 .58.1 1.1.3 1.52a2.9 2.9 0 0 0 .76 1.05c.34.27.73.46 1.17.6a6.13 6.13 0 0 0 1.45.17 7.3 7.3 0 0 0 3.5-.81 12.04 12.04 0 0 0 2.82-2.2v-4.62zm-12.65-9.1a12.72 12.72 0 0 1 3.99-2.66c1.42-.59 3-.88 4.72-.88 1.25 0 2.36.2 3.33.61a6.81 6.81 0 0 1 3.94 4.38c.33 1.04.5 2.19.5 3.43V93h-1.74a1.8 1.8 0 0 1-.88-.18c-.2-.13-.36-.38-.48-.74l-.44-2.12-1.72 1.46a9.48 9.48 0 0 1-3.74 1.7c-.69.15-1.46.23-2.3.23-.87 0-1.69-.12-2.45-.35a5.33 5.33 0 0 1-3.34-2.93 6.62 6.62 0 0 1-.49-2.64c0-.88.25-1.72.73-2.53a6.33 6.33 0 0 1 2.35-2.17c1.09-.63 2.5-1.15 4.25-1.54 1.74-.41 3.89-.65 6.42-.7v-1.75c0-1.73-.37-3.03-1.12-3.91-.75-.9-1.84-1.34-3.28-1.34-.97 0-1.78.12-2.44.37-.64.23-1.2.5-1.7.81l-1.22.82c-.34.23-.68.35-1.02.35-.26 0-.49-.07-.68-.2a1.88 1.88 0 0 1-.48-.53l-.7-1.25zM40.98 32.25c0 2.36-.38 4.53-1.12 6.51a14.26 14.26 0 0 1-8.1 8.4c-1.9.78-4.02 1.17-6.34 1.17-2.31 0-4.42-.39-6.33-1.17a14.31 14.31 0 0 1-8.08-8.4 18.29 18.29 0 0 1-1.12-6.51c0-2.36.38-4.53 1.12-6.5.75-1.97 1.8-3.67 3.17-5.1a14.32 14.32 0 0 1 4.9-3.34c1.92-.8 4.03-1.19 6.34-1.19 2.32 0 4.43.4 6.34 1.19 1.92.8 3.56 1.9 4.93 3.34a14.87 14.87 0 0 1 3.17 5.1 18.1 18.1 0 0 1 1.12 6.5zm-4.38 0c0-1.94-.26-3.68-.8-5.22a10.91 10.91 0 0 0-2.24-3.89 9.68 9.68 0 0 0-3.52-2.46 11.95 11.95 0 0 0-4.62-.86c-1.68 0-3.21.28-4.6.86a9.88 9.88 0 0 0-3.54 2.46 10.91 10.91 0 0 0-2.24 3.9c-.53 1.53-.8 3.27-.8 5.2 0 1.94.27 3.68.8 5.22a11.17 11.17 0 0 0 2.24 3.9 10.01 10.01 0 0 0 3.55 2.44c1.38.56 2.9.83 4.6.83s3.24-.27 4.61-.83a9.8 9.8 0 0 0 3.52-2.44 11.17 11.17 0 0 0 2.25-3.9c.53-1.54.8-3.28.8-5.21zm26.22-6.54V48H60.5c-.56 0-.9-.27-1.05-.81l-.31-2.4a12.45 12.45 0 0 1-3.26 2.6c-1.2.64-2.58.96-4.13.96-1.22 0-2.3-.2-3.24-.6a6.52 6.52 0 0 1-2.33-1.7 7.37 7.37 0 0 1-1.43-2.67c-.3-1.04-.46-2.2-.46-3.45V25.7h3.91v14.22c0 1.68.38 2.99 1.15 3.91.77.93 1.96 1.39 3.54 1.39 1.16 0 2.24-.27 3.23-.82a10.42 10.42 0 0 0 2.8-2.28V25.7h3.91zm8.61 4.47a9.94 9.94 0 0 1 2.6-3.56 5.64 5.64 0 0 1 3.76-1.3c.47 0 .92.05 1.34.15.44.1.83.27 1.17.49l-.3 2.92c-.09.37-.3.55-.66.55-.2 0-.5-.04-.9-.13a6.21 6.21 0 0 0-3.24.18 4.23 4.23 0 0 0-1.47.92c-.42.4-.81.9-1.17 1.5-.33.58-.64 1.26-.92 2.02V48H67.7V25.71h2.25c.42 0 .72.08.88.25.16.16.27.44.33.83l.26 3.39zm61.16-13.7L122.75 48h-3.82l-7.99-24.05a21.95 21.95 0 0 1-.42-1.58 38.36 38.36 0 0 1-.44 1.58L102.05 48h-3.83L88.4 16.47h3.54c.38 0 .7.1.95.29.26.2.43.43.5.73l6.52 21.9.28 1.28.29 1.46.3-1.46.38-1.27 7.41-21.91c.1-.25.26-.48.51-.69.27-.22.58-.33.95-.33h1.23c.38 0 .69.1.92.29a1.77 1.77 0 0 1 .53.73l7.4 21.9a28.4 28.4 0 0 1 .68 2.62 29.52 29.52 0 0 1 .52-2.61l6.54-21.91a1.31 1.31 0 0 1 .48-.7c.27-.21.58-.32.95-.32h3.32zm9.35 8.88c1.63 0 3.1.27 4.4.82a9.43 9.43 0 0 1 5.46 5.94c.5 1.4.74 2.98.74 4.73 0 1.76-.25 3.34-.74 4.75a9.43 9.43 0 0 1-5.46 5.92c-1.3.52-2.77.79-4.4.79-1.64 0-3.12-.27-4.44-.8a9.42 9.42 0 0 1-3.35-2.3c-.92-1-1.63-2.2-2.13-3.61-.49-1.41-.73-3-.73-4.75s.24-3.33.73-4.73c.5-1.43 1.2-2.64 2.13-3.63.93-1 2.04-1.77 3.35-2.31 1.32-.55 2.8-.82 4.44-.82zm0 19.89c2.2 0 3.84-.73 4.93-2.2 1.08-1.48 1.63-3.54 1.63-6.18 0-2.66-.55-4.72-1.63-6.2-1.09-1.49-2.73-2.23-4.93-2.23-1.12 0-2.09.2-2.93.57a5.71 5.71 0 0 0-2.06 1.65c-.55.72-.96 1.61-1.24 2.67-.26 1.04-.4 2.22-.4 3.54 0 2.64.55 4.7 1.64 6.18 1.1 1.47 2.76 2.2 4.99 2.2zm17.97-15.07a9.94 9.94 0 0 1 2.6-3.56 5.64 5.64 0 0 1 3.76-1.3c.47 0 .91.05 1.34.15.44.1.83.27 1.16.49l-.28 2.92c-.09.37-.31.55-.66.55-.2 0-.5-.04-.9-.13a6.2 6.2 0 0 0-3.24.18 4.23 4.23 0 0 0-1.47.92c-.43.4-.82.9-1.17 1.5a13.1 13.1 0 0 0-.92 2.02V48h-3.94V25.71h2.24c.43 0 .72.08.88.25.17.16.28.44.33.83l.27 3.39zm15.04-14.59V48h-3.92V15.6h3.92zm19.55 15.43a6.22 6.22 0 0 0-2.38-2.05 6.7 6.7 0 0 0-2.86-.6c-2.07 0-3.66.75-4.77 2.23-1.12 1.48-1.68 3.6-1.68 6.33 0 1.46.13 2.7.38 3.74a7.29 7.29 0 0 0 1.1 2.56 4.35 4.35 0 0 0 1.78 1.45c.7.3 1.5.46 2.4.46 1.29 0 2.41-.3 3.36-.88a9.6 9.6 0 0 0 2.67-2.49V31.02zm3.91-15.43V48h-2.33c-.56 0-.9-.27-1.06-.81l-.35-2.71a12.13 12.13 0 0 1-3.25 2.77 8.28 8.28 0 0 1-4.23 1.06 7.31 7.31 0 0 1-6.14-2.9c-.73-.96-1.3-2.15-1.69-3.57a18.35 18.35 0 0 1 .07-9.48 11.29 11.29 0 0 1 1.89-3.7 8.7 8.7 0 0 1 7.06-3.34 7.96 7.96 0 0 1 6.12 2.62V15.59h3.91zM46.61 70.71V93H42.7V70.71h3.91zm.84-7c0 .39-.08.75-.24 1.09-.15.32-.35.61-.62.88-.25.25-.55.44-.9.59a2.67 2.67 0 0 1-2.16 0 2.9 2.9 0 0 1-1.45-1.47 2.67 2.67 0 0 1 0-2.16c.15-.35.35-.65.6-.9.25-.27.53-.47.85-.62a2.67 2.67 0 0 1 2.16 0c.35.15.65.35.9.62.27.25.47.55.62.9.16.34.24.7.24 1.08zm7.97 10.24c.49-.54 1-1.04 1.54-1.48a9.85 9.85 0 0 1 3.66-1.84 8.96 8.96 0 0 1 5.43.35c.94.4 1.72.97 2.33 1.71.63.74 1.11 1.62 1.43 2.67.32 1.04.49 2.19.49 3.45V93h-3.94V78.81c0-1.69-.4-3-1.17-3.92-.76-.93-1.93-1.4-3.5-1.4-1.15 0-2.24.27-3.25.83-1 .56-1.92 1.31-2.77 2.27V93h-3.94V70.71h2.35c.56 0 .9.28 1.04.82l.3 2.42zm57.7 3.3c0 2.36-.37 4.5-1.11 6.44a14.3 14.3 0 0 1-3.17 4.98c-1.37 1.37-3 2.45-4.93 3.2-1.9.76-4.02 1.13-6.33 1.13H85.8V61.47h11.77c2.31 0 4.42.39 6.33 1.15a13.8 13.8 0 0 1 8.1 8.18 17.75 17.75 0 0 1 1.12 6.45zm-4.37 0c0-1.94-.26-3.67-.8-5.2a10.94 10.94 0 0 0-2.23-3.87 9.57 9.57 0 0 0-3.53-2.42 12.23 12.23 0 0 0-4.61-.83h-7.5v24.62h7.5c1.7 0 3.24-.28 4.61-.84a9.7 9.7 0 0 0 3.53-2.4 10.94 10.94 0 0 0 2.24-3.87c.53-1.53.8-3.26.8-5.2zm19.8 5.72c-1.8.06-3.34.2-4.62.44-1.26.22-2.3.51-3.1.88-.8.36-1.37.8-1.74 1.3-.35.5-.53 1.05-.53 1.67 0 .58.1 1.1.3 1.52a3 3 0 0 0 .76 1.05c.34.27.73.46 1.17.6a6.13 6.13 0 0 0 1.45.17 7.28 7.28 0 0 0 3.5-.81 11.95 11.95 0 0 0 2.82-2.2v-4.62zm-12.65-9.11a12.73 12.73 0 0 1 3.98-2.66c1.43-.59 3-.88 4.73-.88 1.25 0 2.36.2 3.33.61a6.81 6.81 0 0 1 3.94 4.38c.33 1.04.5 2.19.5 3.43V93h-1.74a1.8 1.8 0 0 1-.88-.18c-.2-.13-.36-.38-.48-.74l-.44-2.12-1.72 1.46a9.48 9.48 0 0 1-3.74 1.7c-.69.15-1.46.23-2.3.23-.87 0-1.69-.12-2.45-.35a5.34 5.34 0 0 1-3.34-2.93 6.64 6.64 0 0 1-.49-2.64c0-.88.25-1.72.73-2.53a6.33 6.33 0 0 1 2.35-2.17c1.09-.63 2.5-1.15 4.25-1.54 1.75-.41 3.89-.65 6.42-.7v-1.75c0-1.73-.37-3.03-1.12-3.91-.75-.9-1.84-1.34-3.28-1.34-.97 0-1.78.12-2.44.37-.64.23-1.2.5-1.7.81l-1.23.82c-.33.23-.67.35-1 .35-.27 0-.5-.07-.69-.2a2.1 2.1 0 0 1-.48-.53l-.7-1.25zm27.67 19.5c-1.76 0-3.12-.5-4.07-1.48-.94-.98-1.41-2.4-1.41-4.25V74h-2.68a.9.9 0 0 1-.6-.2c-.16-.14-.24-.36-.24-.66v-1.56l3.65-.46.9-6.89c.05-.22.14-.4.29-.52a.88.88 0 0 1 .62-.22H142v7.67h6.44V74H142v13.38c0 .94.22 1.63.68 2.09.45.45 1.04.68 1.76.68a3.21 3.21 0 0 0 1.85-.53l.55-.35c.16-.12.3-.18.41-.18.2 0 .4.13.55.38l1.15 1.87a7.45 7.45 0 0 1-2.44 1.5 8.53 8.53 0 0 1-2.95.52zm19.68-10.4c-1.8.07-3.34.21-4.62.45-1.26.22-2.3.51-3.1.88-.8.36-1.37.8-1.74 1.3-.35.5-.53 1.05-.53 1.67 0 .58.1 1.1.3 1.52a2.9 2.9 0 0 0 .76 1.05c.34.27.73.46 1.17.6a6.13 6.13 0 0 0 1.45.17 7.3 7.3 0 0 0 3.5-.81 12.04 12.04 0 0 0 2.82-2.2v-4.62zm-12.65-9.1a12.72 12.72 0 0 1 3.99-2.66c1.42-.59 3-.88 4.72-.88 1.25 0 2.36.2 3.33.61a6.81 6.81 0 0 1 3.94 4.38c.33 1.04.5 2.19.5 3.43V93h-1.74a1.8 1.8 0 0 1-.88-.18c-.2-.13-.36-.38-.48-.74l-.44-2.12-1.72 1.46a9.48 9.48 0 0 1-3.74 1.7c-.69.15-1.46.23-2.3.23-.87 0-1.69-.12-2.45-.35a5.33 5.33 0 0 1-3.34-2.93 6.62 6.62 0 0 1-.49-2.64c0-.88.25-1.72.73-2.53a6.33 6.33 0 0 1 2.35-2.17c1.09-.63 2.5-1.15 4.25-1.54 1.74-.41 3.89-.65 6.42-.7v-1.75c0-1.73-.37-3.03-1.12-3.91-.75-.9-1.84-1.34-3.28-1.34-.97 0-1.78.12-2.44.37-.64.23-1.2.5-1.7.81l-1.22.82c-.34.23-.68.35-1.02.35-.26 0-.49-.07-.68-.2a1.88 1.88 0 0 1-.48-.53l-.7-1.25z"
    fill="#fff"
  />
  <path fill="#D42B21" d="M0 106.79h210V120H0z" />
</g>
<defs>
  <clipPath id="clip0"><path fill="#fff" d="M0 0h210v120H0z" /></clipPath>
</defs>
</svg></g><a href="https://ourworldindata.org/grapher/projections-of-the-rate-of-no-education-based-on-current-global-education-trends-1970-2050?tab=chart&amp;facet=entity" style="font-family:&#x27;Playfair Display&#x27;, Georgia, &#x27;Times New Roman&#x27;, &#x27;Liberation Serif&#x27;, serif" target="_blank" rel="noopener"><text font-size="21.60" x="15.0" y="33.8" fill="#555"><tspan x="15" y="33.791999999999994">Share of the population with no formal education, projections by IIASA,</tspan><tspan x="15" y="55.39199999999999">1970 to 2050</tspan></text></a></g><text x="44.421499999999995" y="90.34999999999998" fill="#1d3d63" font-size="13.5" style="font-weight:700">Chad<title>Chad</title></text><g class="LineChart"><defs><clipPath id="boundsClip-22"><rect x="34.421499999999995" y="92.49999999999999" width="236.4215" height="80"></rect></clipPath></defs><rect x="14.999999999999996" y="102.49999999999999" width="216.4215" height="60" fill="transparent"></rect><g class="DualAxisView"><g class="HorizontalAxis"><line x1="44.4" y1="145.35" x2="44.4" y2="150.35" stroke="#999"></line><line x1="230.4" y1="145.35" x2="230.4" y2="150.35" stroke="#999"></line><line x1="114.2" y1="145.35" x2="114.2" y2="150.35" stroke="#999"></line><line x1="160.7" y1="145.35" x2="160.7" y2="150.35" stroke="#999"></line><text x="44.421499999999995" y="162.5" fill="#666" text-anchor="start" font-size="12.15">1970</text><text x="230.42149999999998" y="162.5" fill="#666" text-anchor="end" font-size="12.15">2050</text><text x="114.2" y="162.5" fill="#666" text-anchor="middle" font-size="12.15">2000</text><text x="160.7" y="162.5" fill="#666" text-anchor="middle" font-size="12.15">2020</text></g><g class="VerticalAxis"><text x="39.42" y="145.3" dy=".32em" text-anchor="end" fill="#666" font-size="12.15">0%</text><text x="39.42" y="121.6" dy=".32em" text-anchor="end" fill="#666" font-size="12.15">50%</text></g><g class="AxisGridLines horizontalLines"><line x1="44.42" y1="145.3" x2="230.42" y2="145.3" stroke="#999"></line><line x1="44.42" y1="121.6" x2="230.42" y2="121.6" stroke="#ddd" stroke-dasharray="2,1"></line></g></g><g clip-path="url(#boundsClip-22)"><g class="Lines"><rect x="44" y="102" width="186" height="43" fill="rgba(255,255,255,0)" opacity="0"></rect><g><path stroke-linecap="round" stroke-linejoin="round" stroke="#ddd" d="M44.4 102.5L56 104.3L67.7 105.9L79.3 107.8L90.9 110.2L102.5 112.5L114.2 115L125.8 117.7L137.4 120.2L149 122.7L160.7 125.1L172.3 127.3L183.9 129.4L195.5 131.3L207.2 133L218.8 134.5L230.4 135.9" fill="none" stroke-width="1"></path></g><g><path fill="none" stroke-linecap="butt" stroke-linejoin="round" stroke="#fff" stroke-width="2.5" d="M44.4 102.5L56 104.3L67.7 105.9L79.3 107.8L90.9 110.2L102.5 112.5L114.2 115L125.8 117.7L137.4 120.2L149 122.7L160.7 125.1L172.3 127.3L183.9 129.4L195.5 131.3L207.2 133L218.8 134.5L230.4 135.9"></path><polyline points="44.40,102.50 56.00,104.30 67.70,105.90 79.30,107.80 90.90,110.20 102.50,112.50 114.20,115.00 125.80,117.70 137.40,120.20 149.00,122.70 160.70,125.10 172.30,127.30 183.90,129.40 195.50,131.30 207.20,133.00 218.80,134.50 230.40,135.90" stroke-linejoin="round" stroke-width="1.5" stroke="#578145" fill="none" stroke-linecap="butt"></polyline></g></g></g></g><text x="245.42149999999998" y="90.34999999999998" fill="#1d3d63" font-size="13.5" style="font-weight:700">China<title>China</title></text><g class="LineChart"><defs><clipPath id="boundsClip-23"><rect x="235.42149999999998" y="92.49999999999999" width="207" height="80"></rect></clipPath></defs><rect x="245.42149999999998" y="102.49999999999999" width="187" height="60" fill="transparent"></rect><g class="DualAxisView"><g class="HorizontalAxis"><line x1="245.4" y1="145.35" x2="245.4" y2="150.35" stroke="#999"></line><line x1="431.4" y1="145.35" x2="431.4" y2="150.35" stroke="#999"></line><line x1="315.2" y1="145.35" x2="315.2" y2="150.35" stroke="#999"></line><line x1="361.7" y1="145.35" x2="361.7" y2="150.35" stroke="#999"></line><text x="245.42149999999998" y="162.5" fill="#666" text-anchor="start" font-size="12.15">1970</text><text x="431.4215" y="162.5" fill="#666" text-anchor="end" font-size="12.15">2050</text><text x="315.2" y="162.5" fill="#666" text-anchor="middle" font-size="12.15">2000</text><text x="361.7" y="162.5" fill="#666" text-anchor="middle" font-size="12.15">2020</text></g><g class="AxisGridLines horizontalLines"><line x1="245.42" y1="145.3" x2="431.42" y2="145.3" stroke="#999"></line><line x1="245.42" y1="121.6" x2="431.42" y2="121.6" stroke="#ddd" stroke-dasharray="2,1"></line></g></g><g clip-path="url(#boundsClip-23)"><g class="Lines"><rect x="245" y="102" width="186" height="43" fill="rgba(255,255,255,0)" opacity="0"></rect><g><path stroke-linecap="round" stroke-linejoin="round" stroke="#ddd" d="M245.4 126L257 129.2L268.7 132.4L280.3 135.2L291.9 137.2L303.5 138.7L315.2 140L326.8 141.1L338.4 142L350 142.7L361.7 143.3L373.3 143.8L384.9 144.1L396.5 144.4L408.2 144.7L419.8 144.8L431.4 145" fill="none" stroke-width="1"></path></g><g><path fill="none" stroke-linecap="butt" stroke-linejoin="round" stroke="#fff" stroke-width="2.5" d="M245.4 126L257 129.2L268.7 132.4L280.3 135.2L291.9 137.2L303.5 138.7L315.2 140L326.8 141.1L338.4 142L350 142.7L361.7 143.3L373.3 143.8L384.9 144.1L396.5 144.4L408.2 144.7L419.8 144.8L431.4 145"></path><polyline points="245.40,126.00 257.00,129.20 268.70,132.40 280.30,135.20 291.90,137.20 303.50,138.70 315.20,140.00 326.80,141.10 338.40,142.00 350.00,142.70 361.70,143.30 373.30,143.80 384.90,144.10 396.50,144.40 408.20,144.70 419.80,144.80 431.40,145.00" stroke-linejoin="round" stroke-width="1.5" stroke="#578145" fill="none" stroke-linecap="butt"></polyline></g></g></g></g><text x="446.4215" y="90.34999999999998" fill="#1d3d63" font-size="13.5" style="font-weight:700">India<title>India</title></text><g class="LineChart"><defs><clipPath id="boundsClip-24"><rect x="436.4215" y="92.49999999999999" width="207" height="80"></rect></clipPath></defs><rect x="446.4215" y="102.49999999999999" width="187" height="60" fill="transparent"></rect><g class="DualAxisView"><g class="HorizontalAxis"><line x1="446.4" y1="145.35" x2="446.4" y2="150.35" stroke="#999"></line><line x1="632.4" y1="145.35" x2="632.4" y2="150.35" stroke="#999"></line><line x1="516.2" y1="145.35" x2="516.2" y2="150.35" stroke="#999"></line><line x1="562.7" y1="145.35" x2="562.7" y2="150.35" stroke="#999"></line><text x="446.4215" y="162.5" fill="#666" text-anchor="start" font-size="12.15">1970</text><text x="632.4214999999999" y="162.5" fill="#666" text-anchor="end" font-size="12.15">2050</text><text x="516.2" y="162.5" fill="#666" text-anchor="middle" font-size="12.15">2000</text><text x="562.7" y="162.5" fill="#666" text-anchor="middle" font-size="12.15">2020</text></g><g class="AxisGridLines horizontalLines"><line x1="446.42" y1="145.3" x2="632.42" y2="145.3" stroke="#999"></line><line x1="446.42" y1="121.6" x2="632.42" y2="121.6" stroke="#ddd" stroke-dasharray="2,1"></line></g></g><g clip-path="url(#boundsClip-24)"><g class="Lines"><rect x="446" y="102" width="186" height="43" fill="rgba(255,255,255,0)" opacity="0"></rect><g><path stroke-linecap="round" stroke-linejoin="round" stroke="#ddd" d="M446.4 115.7L458 117.2L469.7 118.6L481.3 120.1L492.9 121.7L504.5 123.6L516.2 125.7L527.8 127.6L539.4 129.5L551 131.1L562.7 132.7L574.3 134.1L585.9 135.4L597.5 136.6L609.2 137.7L620.8 138.7L632.4 139.6" fill="none" stroke-width="1"></path></g><g><path fill="none" stroke-linecap="butt" stroke-linejoin="round" stroke="#fff" stroke-width="2.5" d="M446.4 115.7L458 117.2L469.7 118.6L481.3 120.1L492.9 121.7L504.5 123.6L516.2 125.7L527.8 127.6L539.4 129.5L551 131.1L562.7 132.7L574.3 134.1L585.9 135.4L597.5 136.6L609.2 137.7L620.8 138.7L632.4 139.6"></path><polyline points="446.40,115.70 458.00,117.20 469.70,118.60 481.30,120.10 492.90,121.70 504.50,123.60 516.20,125.70 527.80,127.60 539.40,129.50 551.00,131.10 562.70,132.70 574.30,134.10 585.90,135.40 597.50,136.60 609.20,137.70 620.80,138.70 632.40,139.60" stroke-linejoin="round" stroke-width="1.5" stroke="#578145" fill="none" stroke-linecap="butt"></polyline></g></g></g></g><text x="647.4215" y="90.34999999999998" fill="#1d3d63" font-size="13.5" style="font-weight:700">Laos<title>Laos</title></text><g class="LineChart"><defs><clipPath id="boundsClip-25"><rect x="637.4215" y="92.49999999999999" width="207" height="80"></rect></clipPath></defs><rect x="647.4215" y="102.49999999999999" width="187" height="60" fill="transparent"></rect><g class="DualAxisView"><g class="HorizontalAxis"><line x1="647.4" y1="145.35" x2="647.4" y2="150.35" stroke="#999"></line><line x1="833.4" y1="145.35" x2="833.4" y2="150.35" stroke="#999"></line><line x1="717.2" y1="145.35" x2="717.2" y2="150.35" stroke="#999"></line><line x1="763.7" y1="145.35" x2="763.7" y2="150.35" stroke="#999"></line><text x="647.4215" y="162.5" fill="#666" text-anchor="start" font-size="12.15">1970</text><text x="833.4215" y="162.5" fill="#666" text-anchor="end" font-size="12.15">2050</text><text x="717.2" y="162.5" fill="#666" text-anchor="middle" font-size="12.15">2000</text><text x="763.7" y="162.5" fill="#666" text-anchor="middle" font-size="12.15">2020</text></g><g class="AxisGridLines horizontalLines"><line x1="647.42" y1="145.3" x2="833.42" y2="145.3" stroke="#999"></line><line x1="647.42" y1="121.6" x2="833.42" y2="121.6" stroke="#ddd" stroke-dasharray="2,1"></line></g></g><g clip-path="url(#boundsClip-25)"><g class="Lines"><rect x="647" y="102" width="186" height="43" fill="rgba(255,255,255,0)" opacity="0"></rect><g><path stroke-linecap="round" stroke-linejoin="round" stroke="#ddd" d="M647.4 115.4L659 118.5L670.7 121L682.3 123.5L693.9 125.4L705.5 127.3L717.2 129.5L728.8 131.6L740.4 133.5L752 135L763.7 136.3L775.3 137.4L786.9 138.4L798.5 139.3L810.2 140.1L821.8 140.8L833.4 141.4" fill="none" stroke-width="1"></path></g><g><path fill="none" stroke-linecap="butt" stroke-linejoin="round" stroke="#fff" stroke-width="2.5" d="M647.4 115.4L659 118.5L670.7 121L682.3 123.5L693.9 125.4L705.5 127.3L717.2 129.5L728.8 131.6L740.4 133.5L752 135L763.7 136.3L775.3 137.4L786.9 138.4L798.5 139.3L810.2 140.1L821.8 140.8L833.4 141.4"></path><polyline points="647.40,115.40 659.00,118.50 670.70,121.00 682.30,123.50 693.90,125.40 705.50,127.30 717.20,129.50 728.80,131.60 740.40,133.50 752.00,135.00 763.70,136.30 775.30,137.40 786.90,138.40 798.50,139.30 810.20,140.10 821.80,140.80 833.40,141.40" stroke-linejoin="round" stroke-width="1.5" stroke="#578145" fill="none" stroke-linecap="butt"></polyline></g></g></g></g><text x="44.421499999999995" y="197.35" fill="#1d3d63" font-size="13.5" style="font-weight:700">Nepal<title>Nepal</title></text><g class="LineChart"><defs><clipPath id="boundsClip-26"><rect x="34.421499999999995" y="199.5" width="236.4215" height="80"></rect></clipPath></defs><rect x="14.999999999999996" y="209.5" width="216.4215" height="60" fill="transparent"></rect><g class="DualAxisView"><g class="HorizontalAxis"><line x1="44.4" y1="252.35" x2="44.4" y2="257.35" stroke="#999"></line><line x1="230.4" y1="252.35" x2="230.4" y2="257.35" stroke="#999"></line><line x1="114.2" y1="252.35" x2="114.2" y2="257.35" stroke="#999"></line><line x1="160.7" y1="252.35" x2="160.7" y2="257.35" stroke="#999"></line><text x="44.421499999999995" y="269.5" fill="#666" text-anchor="start" font-size="12.15">1970</text><text x="230.42149999999998" y="269.5" fill="#666" text-anchor="end" font-size="12.15">2050</text><text x="114.2" y="269.5" fill="#666" text-anchor="middle" font-size="12.15">2000</text><text x="160.7" y="269.5" fill="#666" text-anchor="middle" font-size="12.15">2020</text></g><g class="VerticalAxis"><text x="39.42" y="252.3" dy=".32em" text-anchor="end" fill="#666" font-size="12.15">0%</text><text x="39.42" y="228.6" dy=".32em" text-anchor="end" fill="#666" font-size="12.15">50%</text></g><g class="AxisGridLines horizontalLines"><line x1="44.42" y1="252.3" x2="230.42" y2="252.3" stroke="#999"></line><line x1="44.42" y1="228.6" x2="230.42" y2="228.6" stroke="#ddd" stroke-dasharray="2,1"></line></g></g><g clip-path="url(#boundsClip-26)"><g class="Lines"><rect x="44" y="210" width="186" height="43" fill="rgba(255,255,255,0)" opacity="0"></rect><g><path stroke-linecap="round" stroke-linejoin="round" stroke="#ddd" d="M44.4 211L56 212.8L67.7 214.9L79.3 217.2L90.9 219.8L102.5 222.8L114.2 226.3L125.8 229.6L137.4 232.6L149 235.2L160.7 237.4L172.3 239.4L183.9 241.2L195.5 242.8L207.2 244.2L218.8 245.5L230.4 246.6" fill="none" stroke-width="1"></path></g><g><path fill="none" stroke-linecap="butt" stroke-linejoin="round" stroke="#fff" stroke-width="2.5" d="M44.4 211L56 212.8L67.7 214.9L79.3 217.2L90.9 219.8L102.5 222.8L114.2 226.3L125.8 229.6L137.4 232.6L149 235.2L160.7 237.4L172.3 239.4L183.9 241.2L195.5 242.8L207.2 244.2L218.8 245.5L230.4 246.6"></path><polyline points="44.40,211.00 56.00,212.80 67.70,214.90 79.30,217.20 90.90,219.80 102.50,222.80 114.20,226.30 125.80,229.60 137.40,232.60 149.00,235.20 160.70,237.40 172.30,239.40 183.90,241.20 195.50,242.80 207.20,244.20 218.80,245.50 230.40,246.60" stroke-linejoin="round" stroke-width="1.5" stroke="#578145" fill="none" stroke-linecap="butt"></polyline></g></g></g></g><text x="245.42149999999998" y="197.35" fill="#1d3d63" font-size="13.5" style="font-weight:700">Nigeria<title>Nigeria</title></text><g class="LineChart"><defs><clipPath id="boundsClip-27"><rect x="235.42149999999998" y="199.5" width="207" height="80"></rect></clipPath></defs><rect x="245.42149999999998" y="209.5" width="187" height="60" fill="transparent"></rect><g class="DualAxisView"><g class="HorizontalAxis"><line x1="245.4" y1="252.35" x2="245.4" y2="257.35" stroke="#999"></line><line x1="431.4" y1="252.35" x2="431.4" y2="257.35" stroke="#999"></line><line x1="315.2" y1="252.35" x2="315.2" y2="257.35" stroke="#999"></line><line x1="361.7" y1="252.35" x2="361.7" y2="257.35" stroke="#999"></line><text x="245.42149999999998" y="269.5" fill="#666" text-anchor="start" font-size="12.15">1970</text><text x="431.4215" y="269.5" fill="#666" text-anchor="end" font-size="12.15">2050</text><text x="315.2" y="269.5" fill="#666" text-anchor="middle" font-size="12.15">2000</text><text x="361.7" y="269.5" fill="#666" text-anchor="middle" font-size="12.15">2020</text></g><g class="AxisGridLines horizontalLines"><line x1="245.42" y1="252.3" x2="431.42" y2="252.3" stroke="#999"></line><line x1="245.42" y1="228.6" x2="431.42" y2="228.6" stroke="#ddd" stroke-dasharray="2,1"></line></g></g><g clip-path="url(#boundsClip-27)"><g class="Lines"><rect x="245" y="210" width="186" height="43" fill="rgba(255,255,255,0)" opacity="0"></rect><g><path stroke-linecap="round" stroke-linejoin="round" stroke="#ddd" d="M245.4 217L257 219.4L268.7 222.4L280.3 225.1L291.9 227.9L303.5 230.8L315.2 233.5L326.8 235.9L338.4 238.1L350 240.2L361.7 241.9L373.3 243.5L384.9 244.8L396.5 245.9L408.2 246.9L419.8 247.7L431.4 248.5" fill="none" stroke-width="1"></path></g><g><path fill="none" stroke-linecap="butt" stroke-linejoin="round" stroke="#fff" stroke-width="2.5" d="M245.4 217L257 219.4L268.7 222.4L280.3 225.1L291.9 227.9L303.5 230.8L315.2 233.5L326.8 235.9L338.4 238.1L350 240.2L361.7 241.9L373.3 243.5L384.9 244.8L396.5 245.9L408.2 246.9L419.8 247.7L431.4 248.5"></path><polyline points="245.40,217.00 257.00,219.40 268.70,222.40 280.30,225.10 291.90,227.90 303.50,230.80 315.20,233.50 326.80,235.90 338.40,238.10 350.00,240.20 361.70,241.90 373.30,243.50 384.90,244.80 396.50,245.90 408.20,246.90 419.80,247.70 431.40,248.50" stroke-linejoin="round" stroke-width="1.5" stroke="#578145" fill="none" stroke-linecap="butt"></polyline></g></g></g></g><text x="446.4215" y="197.35" fill="#1d3d63" font-size="13.5" style="font-weight:700">Vietnam<title>Vietnam</title></text><g class="LineChart"><defs><clipPath id="boundsClip-28"><rect x="436.4215" y="199.5" width="207" height="80"></rect></clipPath></defs><rect x="446.4215" y="209.5" width="187" height="60" fill="transparent"></rect><g class="DualAxisView"><g class="HorizontalAxis"><line x1="446.4" y1="252.35" x2="446.4" y2="257.35" stroke="#999"></line><line x1="632.4" y1="252.35" x2="632.4" y2="257.35" stroke="#999"></line><line x1="516.2" y1="252.35" x2="516.2" y2="257.35" stroke="#999"></line><line x1="562.7" y1="252.35" x2="562.7" y2="257.35" stroke="#999"></line><text x="446.4215" y="269.5" fill="#666" text-anchor="start" font-size="12.15">1970</text><text x="632.4214999999999" y="269.5" fill="#666" text-anchor="end" font-size="12.15">2050</text><text x="516.2" y="269.5" fill="#666" text-anchor="middle" font-size="12.15">2000</text><text x="562.7" y="269.5" fill="#666" text-anchor="middle" font-size="12.15">2020</text></g><g class="AxisGridLines horizontalLines"><line x1="446.42" y1="252.3" x2="632.42" y2="252.3" stroke="#999"></line><line x1="446.42" y1="228.6" x2="632.42" y2="228.6" stroke="#ddd" stroke-dasharray="2,1"></line></g></g><g clip-path="url(#boundsClip-28)"><g class="Lines"><rect x="446" y="210" width="186" height="43" fill="rgba(255,255,255,0)" opacity="0"></rect><g><path stroke-linecap="round" stroke-linejoin="round" stroke="#ddd" d="M446.4 237.5L458 240.6L469.7 243.1L481.3 245L492.9 246.3L504.5 247.3L516.2 248.1L527.8 248.7L539.4 249.3L551 249.7L562.7 250.1L574.3 250.3L585.9 250.6L597.5 250.8L609.2 251L620.8 251.1L632.4 251.3" fill="none" stroke-width="1"></path></g><g><path fill="none" stroke-linecap="butt" stroke-linejoin="round" stroke="#fff" stroke-width="2.5" d="M446.4 237.5L458 240.6L469.7 243.1L481.3 245L492.9 246.3L504.5 247.3L516.2 248.1L527.8 248.7L539.4 249.3L551 249.7L562.7 250.1L574.3 250.3L585.9 250.6L597.5 250.8L609.2 251L620.8 251.1L632.4 251.3"></path><polyline points="446.40,237.50 458.00,240.60 469.70,243.10 481.30,245.00 492.90,246.30 504.50,247.30 516.20,248.10 527.80,248.70 539.40,249.30 551.00,249.70 562.70,250.10 574.30,250.30 585.90,250.60 597.50,250.80 609.20,251.00 620.80,251.10 632.40,251.30" stroke-linejoin="round" stroke-width="1.5" stroke="#578145" fill="none" stroke-linecap="butt"></polyline></g></g></g></g><text x="647.4215" y="197.35" fill="#1d3d63" font-size="13.5" style="font-weight:700">South Africa<title>South Africa</title></text><g class="LineChart"><defs><clipPath id="boundsClip-29"><rect x="637.4215" y="199.5" width="207" height="80"></rect></clipPath></defs><rect x="647.4215" y="209.5" width="187" height="60" fill="transparent"></rect><g class="DualAxisView"><g class="HorizontalAxis"><line x1="647.4" y1="252.35" x2="647.4" y2="257.35" stroke="#999"></line><line x1="833.4" y1="252.35" x2="833.4" y2="257.35" stroke="#999"></line><line x1="717.2" y1="252.35" x2="717.2" y2="257.35" stroke="#999"></line><line x1="763.7" y1="252.35" x2="763.7" y2="257.35" stroke="#999"></line><text x="647.4215" y="269.5" fill="#666" text-anchor="start" font-size="12.15">1970</text><text x="833.4215" y="269.5" fill="#666" text-anchor="end" font-size="12.15">2050</text><text x="717.2" y="269.5" fill="#666" text-anchor="middle" font-size="12.15">2000</text><text x="763.7" y="269.5" fill="#666" text-anchor="middle" font-size="12.15">2020</text></g><g class="AxisGridLines horizontalLines"><line x1="647.42" y1="252.3" x2="833.42" y2="252.3" stroke="#999"></line><line x1="647.42" y1="228.6" x2="833.42" y2="228.6" stroke="#ddd" stroke-dasharray="2,1"></line></g></g><g clip-path="url(#boundsClip-29)"><g class="Lines"><rect x="647" y="210" width="186" height="43" fill="rgba(255,255,255,0)" opacity="0"></rect><g><path stroke-linecap="round" stroke-linejoin="round" stroke="#ddd" d="M647.4 233.3L659 235.8L670.7 238.1L682.3 240.2L693.9 242.1L705.5 243.7L717.2 245.2L728.8 246.5L740.4 247.6L752 248.5L763.7 249.3L775.3 250L786.9 250.5L798.5 250.9L810.2 251.3L821.8 251.6L833.4 251.8" fill="none" stroke-width="1"></path></g><g><path fill="none" stroke-linecap="butt" stroke-linejoin="round" stroke="#fff" stroke-width="2.5" d="M647.4 233.3L659 235.8L670.7 238.1L682.3 240.2L693.9 242.1L705.5 243.7L717.2 245.2L728.8 246.5L740.4 247.6L752 248.5L763.7 249.3L775.3 250L786.9 250.5L798.5 250.9L810.2 251.3L821.8 251.6L833.4 251.8"></path><polyline points="647.40,233.30 659.00,235.80 670.70,238.10 682.30,240.20 693.90,242.10 705.50,243.70 717.20,245.20 728.80,246.50 740.40,247.60 752.00,248.50 763.70,249.30 775.30,250.00 786.90,250.50 798.50,250.90 810.20,251.30 821.80,251.60 833.40,251.80" stroke-linejoin="round" stroke-width="1.5" stroke="#578145" fill="none" stroke-linecap="butt"></polyline></g></g></g></g><text x="44.421499999999995" y="304.35" fill="#1d3d63" font-size="13.5" style="font-weight:700">Egypt<title>Egypt</title></text><g class="LineChart"><defs><clipPath id="boundsClip-30"><rect x="34.421499999999995" y="306.5" width="236.4215" height="80"></rect></clipPath></defs><rect x="14.999999999999996" y="316.5" width="216.4215" height="60" fill="transparent"></rect><g class="DualAxisView"><g class="HorizontalAxis"><line x1="44.4" y1="359.35" x2="44.4" y2="364.35" stroke="#999"></line><line x1="230.4" y1="359.35" x2="230.4" y2="364.35" stroke="#999"></line><line x1="114.2" y1="359.35" x2="114.2" y2="364.35" stroke="#999"></line><line x1="160.7" y1="359.35" x2="160.7" y2="364.35" stroke="#999"></line><text x="44.421499999999995" y="376.5" fill="#666" text-anchor="start" font-size="12.15">1970</text><text x="230.42149999999998" y="376.5" fill="#666" text-anchor="end" font-size="12.15">2050</text><text x="114.2" y="376.5" fill="#666" text-anchor="middle" font-size="12.15">2000</text><text x="160.7" y="376.5" fill="#666" text-anchor="middle" font-size="12.15">2020</text></g><g class="VerticalAxis"><text x="39.42" y="359.4" dy=".32em" text-anchor="end" fill="#666" font-size="12.15">0%</text><text x="39.42" y="335.6" dy=".32em" text-anchor="end" fill="#666" font-size="12.15">50%</text></g><g class="AxisGridLines horizontalLines"><line x1="44.42" y1="359.4" x2="230.42" y2="359.4" stroke="#999"></line><line x1="44.42" y1="335.6" x2="230.42" y2="335.6" stroke="#ddd" stroke-dasharray="2,1"></line></g></g><g clip-path="url(#boundsClip-30)"><g class="Lines"><rect x="44" y="317" width="186" height="43" fill="rgba(255,255,255,0)" opacity="0"></rect><g><path stroke-linecap="round" stroke-linejoin="round" stroke="#ddd" d="M44.4 327.3L56 330.3L67.7 332.7L79.3 335.5L90.9 338.3L102.5 341.3L114.2 343.9L125.8 346.1L137.4 348L149 349.6L160.7 351L172.3 352.3L183.9 353.4L195.5 354.4L207.2 355.2L218.8 356L230.4 356.6" fill="none" stroke-width="1"></path></g><g><path fill="none" stroke-linecap="butt" stroke-linejoin="round" stroke="#fff" stroke-width="2.5" d="M44.4 327.3L56 330.3L67.7 332.7L79.3 335.5L90.9 338.3L102.5 341.3L114.2 343.9L125.8 346.1L137.4 348L149 349.6L160.7 351L172.3 352.3L183.9 353.4L195.5 354.4L207.2 355.2L218.8 356L230.4 356.6"></path><polyline points="44.40,327.30 56.00,330.30 67.70,332.70 79.30,335.50 90.90,338.30 102.50,341.30 114.20,343.90 125.80,346.10 137.40,348.00 149.00,349.60 160.70,351.00 172.30,352.30 183.90,353.40 195.50,354.40 207.20,355.20 218.80,356.00 230.40,356.60" stroke-linejoin="round" stroke-width="1.5" stroke="#578145" fill="none" stroke-linecap="butt"></polyline></g></g></g></g><text x="245.42149999999998" y="304.35" fill="#1d3d63" font-size="13.5" style="font-weight:700">Brazil<title>Brazil</title></text><g class="LineChart"><defs><clipPath id="boundsClip-31"><rect x="235.42149999999998" y="306.5" width="207" height="80"></rect></clipPath></defs><rect x="245.42149999999998" y="316.5" width="187" height="60" fill="transparent"></rect><g class="DualAxisView"><g class="HorizontalAxis"><line x1="245.4" y1="359.35" x2="245.4" y2="364.35" stroke="#999"></line><line x1="431.4" y1="359.35" x2="431.4" y2="364.35" stroke="#999"></line><line x1="315.2" y1="359.35" x2="315.2" y2="364.35" stroke="#999"></line><line x1="361.7" y1="359.35" x2="361.7" y2="364.35" stroke="#999"></line><text x="245.42149999999998" y="376.5" fill="#666" text-anchor="start" font-size="12.15">1970</text><text x="431.4215" y="376.5" fill="#666" text-anchor="end" font-size="12.15">2050</text><text x="315.2" y="376.5" fill="#666" text-anchor="middle" font-size="12.15">2000</text><text x="361.7" y="376.5" fill="#666" text-anchor="middle" font-size="12.15">2020</text></g><g class="AxisGridLines horizontalLines"><line x1="245.42" y1="359.4" x2="431.42" y2="359.4" stroke="#999"></line><line x1="245.42" y1="335.6" x2="431.42" y2="335.6" stroke="#ddd" stroke-dasharray="2,1"></line></g></g><g clip-path="url(#boundsClip-31)"><g class="Lines"><rect x="245" y="317" width="186" height="43" fill="rgba(255,255,255,0)" opacity="0"></rect><g><path stroke-linecap="round" stroke-linejoin="round" stroke="#ddd" d="M245.4 343.8L257 346L268.7 348.1L280.3 349.8L291.9 351.3L303.5 352.6L315.2 353.7L326.8 354.6L338.4 355.4L350 356.1L361.7 356.6L373.3 357.1L384.9 357.5L396.5 357.9L408.2 358.2L419.8 358.4L431.4 358.6" fill="none" stroke-width="1"></path></g><g><path fill="none" stroke-linecap="butt" stroke-linejoin="round" stroke="#fff" stroke-width="2.5" d="M245.4 343.8L257 346L268.7 348.1L280.3 349.8L291.9 351.3L303.5 352.6L315.2 353.7L326.8 354.6L338.4 355.4L350 356.1L361.7 356.6L373.3 357.1L384.9 357.5L396.5 357.9L408.2 358.2L419.8 358.4L431.4 358.6"></path><polyline points="245.40,343.80 257.00,346.00 268.70,348.10 280.30,349.80 291.90,351.30 303.50,352.60 315.20,353.70 326.80,354.60 338.40,355.40 350.00,356.10 361.70,356.60 373.30,357.10 384.90,357.50 396.50,357.90 408.20,358.20 419.80,358.40 431.40,358.60" stroke-linejoin="round" stroke-width="1.5" stroke="#578145" fill="none" stroke-linecap="butt"></polyline></g></g></g></g><text x="446.4215" y="304.35" fill="#1d3d63" font-size="13.5" style="font-weight:700">Argentina<title>Argentina</title></text><g class="LineChart"><defs><clipPath id="boundsClip-32"><rect x="436.4215" y="306.5" width="207" height="80"></rect></clipPath></defs><rect x="446.4215" y="316.5" width="187" height="60" fill="transparent"></rect><g class="DualAxisView"><g class="HorizontalAxis"><line x1="446.4" y1="359.35" x2="446.4" y2="364.35" stroke="#999"></line><line x1="632.4" y1="359.35" x2="632.4" y2="364.35" stroke="#999"></line><line x1="516.2" y1="359.35" x2="516.2" y2="364.35" stroke="#999"></line><line x1="562.7" y1="359.35" x2="562.7" y2="364.35" stroke="#999"></line><text x="446.4215" y="376.5" fill="#666" text-anchor="start" font-size="12.15">1970</text><text x="632.4214999999999" y="376.5" fill="#666" text-anchor="end" font-size="12.15">2050</text><text x="516.2" y="376.5" fill="#666" text-anchor="middle" font-size="12.15">2000</text><text x="562.7" y="376.5" fill="#666" text-anchor="middle" font-size="12.15">2020</text></g><g class="AxisGridLines horizontalLines"><line x1="446.42" y1="359.4" x2="632.42" y2="359.4" stroke="#999"></line><line x1="446.42" y1="335.6" x2="632.42" y2="335.6" stroke="#ddd" stroke-dasharray="2,1"></line></g></g><g clip-path="url(#boundsClip-32)"><g class="Lines"><rect x="446" y="317" width="186" height="43" fill="rgba(255,255,255,0)" opacity="0"></rect><g><path stroke-linecap="round" stroke-linejoin="round" stroke="#ddd" d="M446.4 354.6L458 355.3L469.7 355.9L481.3 356.4L492.9 356.9L504.5 357.3L516.2 357.7L527.8 358L539.4 358.2L551 358.4L562.7 358.6L574.3 358.7L585.9 358.9L597.5 359L609.2 359L620.8 359.1L632.4 359.2" fill="none" stroke-width="1"></path></g><g><path fill="none" stroke-linecap="butt" stroke-linejoin="round" stroke="#fff" stroke-width="2.5" d="M446.4 354.6L458 355.3L469.7 355.9L481.3 356.4L492.9 356.9L504.5 357.3L516.2 357.7L527.8 358L539.4 358.2L551 358.4L562.7 358.6L574.3 358.7L585.9 358.9L597.5 359L609.2 359L620.8 359.1L632.4 359.2"></path><polyline points="446.40,354.60 458.00,355.30 469.70,355.90 481.30,356.40 492.90,356.90 504.50,357.30 516.20,357.70 527.80,358.00 539.40,358.20 551.00,358.40 562.70,358.60 574.30,358.70 585.90,358.90 597.50,359.00 609.20,359.00 620.80,359.10 632.40,359.20" stroke-linejoin="round" stroke-width="1.5" stroke="#578145" fill="none" stroke-linecap="butt"></polyline></g></g></g></g><text x="647.4215" y="304.35" fill="#1d3d63" font-size="13.5" style="font-weight:700">United States<title>United States</title></text><g class="LineChart"><defs><clipPath id="boundsClip-33"><rect x="637.4215" y="306.5" width="207" height="80"></rect></clipPath></defs><rect x="647.4215" y="316.5" width="187" height="60" fill="transparent"></rect><g class="DualAxisView"><g class="HorizontalAxis"><line x1="647.4" y1="359.35" x2="647.4" y2="364.35" stroke="#999"></line><line x1="833.4" y1="359.35" x2="833.4" y2="364.35" stroke="#999"></line><line x1="717.2" y1="359.35" x2="717.2" y2="364.35" stroke="#999"></line><line x1="763.7" y1="359.35" x2="763.7" y2="364.35" stroke="#999"></line><text x="647.4215" y="376.5" fill="#666" text-anchor="start" font-size="12.15">1970</text><text x="833.4215" y="376.5" fill="#666" text-anchor="end" font-size="12.15">2050</text><text x="717.2" y="376.5" fill="#666" text-anchor="middle" font-size="12.15">2000</text><text x="763.7" y="376.5" fill="#666" text-anchor="middle" font-size="12.15">2020</text></g><g class="AxisGridLines horizontalLines"><line x1="647.42" y1="359.4" x2="833.42" y2="359.4" stroke="#999"></line><line x1="647.42" y1="335.6" x2="833.42" y2="335.6" stroke="#ddd" stroke-dasharray="2,1"></line></g></g><g clip-path="url(#boundsClip-33)"><g class="Lines"><rect x="647" y="317" width="186" height="43" fill="rgba(255,255,255,0)" opacity="0"></rect><g><path stroke-linecap="round" stroke-linejoin="round" stroke="#ddd" d="M647.4 358.5L659 358.7L670.7 358.8L682.3 358.9L693.9 359L705.5 359.1L717.2 359.1L728.8 359.2L740.4 359.2L752 359.2L763.7 359.3L775.3 359.3L786.9 359.3L798.5 359.3L810.2 359.3L821.8 359.3L833.4 359.3" fill="none" stroke-width="1"></path></g><g><path fill="none" stroke-linecap="butt" stroke-linejoin="round" stroke="#fff" stroke-width="2.5" d="M647.4 358.5L659 358.7L670.7 358.8L682.3 358.9L693.9 359L705.5 359.1L717.2 359.1L728.8 359.2L740.4 359.2L752 359.2L763.7 359.3L775.3 359.3L786.9 359.3L798.5 359.3L810.2 359.3L821.8 359.3L833.4 359.3"></path><polyline points="647.40,358.50 659.00,358.70 670.70,358.80 682.30,358.90 693.90,359.00 705.50,359.10 717.20,359.10 728.80,359.20 740.40,359.20 752.00,359.20 763.70,359.30 775.30,359.30 786.90,359.30 798.50,359.30 810.20,359.30 821.80,359.30 833.40,359.30" stroke-linejoin="round" stroke-width="1.5" stroke="#578145" fill="none" stroke-linecap="butt"></polyline></g></g></g></g><text x="44.421499999999995" y="411.35" fill="#1d3d63" font-size="13.5" style="font-weight:700">Germany<title>Germany</title></text><g class="LineChart"><defs><clipPath id="boundsClip-34"><rect x="34.421499999999995" y="413.5" width="236.4215" height="80"></rect></clipPath></defs><rect x="14.999999999999996" y="423.5" width="216.4215" height="60" fill="transparent"></rect><g class="DualAxisView"><g class="HorizontalAxis"><line x1="44.4" y1="466.35" x2="44.4" y2="471.35" stroke="#999"></line><line x1="230.4" y1="466.35" x2="230.4" y2="471.35" stroke="#999"></line><line x1="114.2" y1="466.35" x2="114.2" y2="471.35" stroke="#999"></line><line x1="160.7" y1="466.35" x2="160.7" y2="471.35" stroke="#999"></line><text x="44.421499999999995" y="483.5" fill="#666" text-anchor="start" font-size="12.15">1970</text><text x="230.42149999999998" y="483.5" fill="#666" text-anchor="end" font-size="12.15">2050</text><text x="114.2" y="483.5" fill="#666" text-anchor="middle" font-size="12.15">2000</text><text x="160.7" y="483.5" fill="#666" text-anchor="middle" font-size="12.15">2020</text></g><g class="VerticalAxis"><text x="39.42" y="466.4" dy=".32em" text-anchor="end" fill="#666" font-size="12.15">0%</text><text x="39.42" y="442.6" dy=".32em" text-anchor="end" fill="#666" font-size="12.15">50%</text></g><g class="AxisGridLines horizontalLines"><line x1="44.42" y1="466.4" x2="230.42" y2="466.4" stroke="#999"></line><line x1="44.42" y1="442.6" x2="230.42" y2="442.6" stroke="#ddd" stroke-dasharray="2,1"></line></g></g><g clip-path="url(#boundsClip-34)"><g class="Lines"><rect x="44" y="424" width="186" height="43" fill="rgba(255,255,255,0)" opacity="0"></rect><g><path stroke-linecap="round" stroke-linejoin="round" stroke="#ddd" d="M44.4 466.3L56 466.3L67.7 466.3L79.3 466.3L90.9 466.3L102.5 466.3L114.2 466.3" fill="none" stroke-width="1"></path></g><g><path fill="none" stroke-linecap="butt" stroke-linejoin="round" stroke="#fff" stroke-width="2.5" d="M44.4 466.3L56 466.3L67.7 466.3L79.3 466.3L90.9 466.3L102.5 466.3L114.2 466.3"></path><polyline points="44.40,466.30 56.00,466.30 67.70,466.30 79.30,466.30 90.90,466.30 102.50,466.30 114.20,466.30" stroke-linejoin="round" stroke-width="1.5" stroke="#578145" fill="none" stroke-linecap="butt"></polyline></g></g></g></g><text x="245.42149999999998" y="411.35" fill="#1d3d63" font-size="13.5" style="font-weight:700">United Kingdom<title>United Kingdom</title></text><g class="LineChart"><defs><clipPath id="boundsClip-35"><rect x="235.42149999999998" y="413.5" width="207" height="80"></rect></clipPath></defs><rect x="245.42149999999998" y="423.5" width="187" height="60" fill="transparent"></rect><g class="DualAxisView"><g class="HorizontalAxis"><line x1="245.4" y1="466.35" x2="245.4" y2="471.35" stroke="#999"></line><line x1="431.4" y1="466.35" x2="431.4" y2="471.35" stroke="#999"></line><line x1="315.2" y1="466.35" x2="315.2" y2="471.35" stroke="#999"></line><line x1="361.7" y1="466.35" x2="361.7" y2="471.35" stroke="#999"></line><text x="245.42149999999998" y="483.5" fill="#666" text-anchor="start" font-size="12.15">1970</text><text x="431.4215" y="483.5" fill="#666" text-anchor="end" font-size="12.15">2050</text><text x="315.2" y="483.5" fill="#666" text-anchor="middle" font-size="12.15">2000</text><text x="361.7" y="483.5" fill="#666" text-anchor="middle" font-size="12.15">2020</text></g><g class="AxisGridLines horizontalLines"><line x1="245.42" y1="466.4" x2="431.42" y2="466.4" stroke="#999"></line><line x1="245.42" y1="442.6" x2="431.42" y2="442.6" stroke="#ddd" stroke-dasharray="2,1"></line></g></g><g clip-path="url(#boundsClip-35)"><g class="Lines"><rect x="245" y="424" width="186" height="43" fill="rgba(255,255,255,0)" opacity="0"></rect><g><path stroke-linecap="round" stroke-linejoin="round" stroke="#ddd" d="M245.4 466.3L257 466.3L268.7 466.3L280.3 466.3L291.9 466.3L303.5 466.3L315.2 466.3" fill="none" stroke-width="1"></path></g><g><path fill="none" stroke-linecap="butt" stroke-linejoin="round" stroke="#fff" stroke-width="2.5" d="M245.4 466.3L257 466.3L268.7 466.3L280.3 466.3L291.9 466.3L303.5 466.3L315.2 466.3"></path><polyline points="245.40,466.30 257.00,466.30 268.70,466.30 280.30,466.30 291.90,466.30 303.50,466.30 315.20,466.30" stroke-linejoin="round" stroke-width="1.5" stroke="#578145" fill="none" stroke-linecap="butt"></polyline></g></g></g></g><g class="SourcesFooter" style="fill:#777"><g style="fill:#777"><text x="15.0" y="523.3" style="font-size:12.6px;line-height:1.1"><tspan x="15" y="523.3">Source: International Institute for Applied Systems Analysis (IIASA): World Population and Human Capital in the Twenty-First Century (2015)</tspan></text></g><text x="15.0" y="539.2" style="font-size:12.6px;line-height:1.1"><tspan x="15" y="539.2">Note: The data on past and projected rates of educational attainment comes from the International Institute for Applied Systems Analysis (IIASA).</tspan><tspan x="15" y="553.0">These projections are constructed using current Global Economic Trends (GET). There are other scenarios available, including a best and worst</tspan><tspan x="15" y="566.9">case.</tspan></text><text font-size="12.60" x="15.0" y="582.7"><tspan x="15" y="582.732"><a target='_blank' style='fill: #777;' href='https://ourworldindata.org/primary-and-secondary-education'>OurWorldInData.org/primary-and-secondary-education</a>  <a style="fill: #777;" class="cclogo" href="http://creativecommons.org/licenses/by/4.0/deed.en_US" target="_blank">CC BY</a></tspan></text></g><line x1="15" y1="600" x2="835" y2="600" stroke="#777"></line><g style="transform:translate(15px, 615px)"></g></svg>